<?xml version="1.0" standalone="no"?><!DOCTYPE svg PUBLIC "-//W3C//DTD SVG 1.1//EN" "http://www.w3.org/Graphics/SVG/1.1/DTD/svg11.dtd"><svg class="icon" width="200px" height="200.00px" viewBox="0 0 1024 1024" version="1.1" xmlns="http://www.w3.org/2000/svg"><path d="M819.712 287.232m-20.48 0a20.48 20.48 0 1 0 40.96 0 20.48 20.48 0 1 0-40.96 0Z" fill="#38CEB1" /><path d="M86.016 213.504h295.424c11.264 0 20.48-9.216 20.48-20.48s-9.216-20.48-20.48-20.48H86.016c-11.264 0-20.48 9.216-20.48 20.48s9.216 20.48 20.48 20.48zM86.016 530.432h295.424c11.264 0 20.48-9.216 20.48-20.48s-9.216-20.48-20.48-20.48H86.016c-11.264 0-20.48 9.216-20.48 20.48s9.216 20.48 20.48 20.48zM942.08 805.888H80.896c-11.264 0-20.48 9.216-20.48 20.48s9.216 20.48 20.48 20.48H942.08c11.264 0 20.48-9.216 20.48-20.48s-9.216-20.48-20.48-20.48z" fill="#231815" /><path d="M653.312 591.872c58.88 0 112.128-24.576 150.016-63.488l125.44 125.44c4.096 4.096 9.216 6.144 14.336 6.144s10.24-2.048 14.336-6.144c8.192-8.192 8.192-20.992 0-29.184l-128-128c21.504-32.768 33.792-72.192 33.792-114.176 0-10.24-0.512-20.48-2.048-30.72-1.536-11.264-12.288-18.944-23.04-17.408-11.264 1.536-18.944 11.776-17.408 23.04 1.024 8.192 1.536 16.384 1.536 24.576 0 93.184-75.776 168.96-168.96 168.96s-168.96-75.776-168.96-168.96 75.776-168.96 168.96-168.96c38.912 0 75.776 12.8 105.984 37.376 8.704 7.168 21.504 5.632 28.672-3.072 7.168-8.704 5.632-21.504-3.072-28.672-37.376-30.208-83.968-46.592-131.584-46.592-115.712 0-209.92 94.208-209.92 209.92s94.208 209.92 209.92 209.92z" fill="#38CEB1" /></svg>