<?xml version="1.0" standalone="no"?><!DOCTYPE svg PUBLIC "-//W3C//DTD SVG 1.1//EN" "http://www.w3.org/Graphics/SVG/1.1/DTD/svg11.dtd"><svg class="icon" width="200px" height="200.00px" viewBox="0 0 1024 1024" version="1.1" xmlns="http://www.w3.org/2000/svg"><path d="M885.248 284.16c-13.824-16.384-33.792-25.6-54.784-25.6h-54.784c-11.264 0-20.48 9.216-20.48 20.48s9.216 20.48 20.48 20.48h54.784c9.216 0 17.92 4.096 23.552 11.264 5.632 7.168 8.192 16.384 6.656 25.088l-44.544 249.856c-2.56 13.824-13.824 24.064-27.648 25.088l-415.744 36.864c-11.264 1.024-19.456 10.752-18.432 22.016 1.024 10.752 9.728 18.432 20.48 18.432h2.048l415.744-36.864c32.256-3.072 58.368-27.136 64-58.88L901.12 343.04c3.584-20.992-2.048-42.496-15.872-58.88zM297.472 297.984l337.92 1.024c11.264 0 20.48-9.216 20.48-20.48s-9.216-20.48-20.48-20.48l-337.92-1.024c-11.264 0-20.48 9.216-20.48 20.48s9.216 20.48 20.48 20.48z" fill="#38CEB1" /><path d="M707.584 280.576m-20.48 0a20.48 20.48 0 1 0 40.96 0 20.48 20.48 0 1 0-40.96 0Z" fill="#38CEB1" /><path d="M820.224 772.608H352.768c-14.848 0-27.648-10.752-30.208-25.6L213.504 130.048c-2.56-14.848-15.36-25.6-30.208-25.6H85.504c-11.264 0-20.48 9.216-20.48 20.48s9.216 20.48 20.48 20.48h89.088l107.52 609.28c6.144 34.304 35.84 59.392 70.656 59.392h467.456c11.264 0 20.48-9.216 20.48-20.48s-9.216-20.992-20.48-20.992z" fill="#231815" /><path d="M415.744 886.784m-40.96 0a40.96 40.96 0 1 0 81.92 0 40.96 40.96 0 1 0-81.92 0Z" fill="#231815" /><path d="M696.832 886.784m-40.96 0a40.96 40.96 0 1 0 81.92 0 40.96 40.96 0 1 0-81.92 0Z" fill="#231815" /></svg>