<?xml version="1.0" standalone="no"?><!DOCTYPE svg PUBLIC "-//W3C//DTD SVG 1.1//EN" "http://www.w3.org/Graphics/SVG/1.1/DTD/svg11.dtd"><svg class="icon" width="200px" height="200.00px" viewBox="0 0 1024 1024" version="1.1" xmlns="http://www.w3.org/2000/svg"><path d="M851.968 382.464l-41.984 233.984c-2.56 13.824-13.824 24.064-27.648 25.088L358.4 686.592 296.96 346.112h525.312c9.216 0 17.92 4.096 23.552 11.264 5.632 7.168 7.68 16.384 6.144 25.088z" fill="#38CEB1" /><path d="M706.048 280.576m-20.48 0a20.48 20.48 0 1 0 40.96 0 20.48 20.48 0 1 0-40.96 0Z" fill="#231815" /><path d="M884.224 284.16c-13.824-16.384-33.792-25.6-54.784-25.6h-54.784c-11.264 0-20.48 9.216-20.48 20.48s9.216 20.48 20.48 20.48H829.44c9.216 0 17.92 4.096 23.552 11.264 5.632 7.168 8.192 16.384 6.656 25.088l-44.544 249.856c-2.56 13.824-13.824 24.064-27.648 25.088l-482.816 43.008-62.464-355.84 391.68 1.024c11.264 0 20.48-9.216 20.48-20.48s-9.216-20.48-20.48-20.48l-399.36-1.024-22.528-127.488c-2.56-14.848-15.36-25.6-30.208-25.6H83.968c-11.264 0-20.48 9.216-20.48 20.48s9.216 20.48 20.48 20.48h89.088l107.52 609.28c6.144 34.304 35.84 59.392 70.656 59.392H819.2c11.264 0 20.48-9.216 20.48-20.48s-9.216-20.48-20.48-20.48H351.744c-14.848 0-27.648-10.752-30.208-25.6L312.32 693.76l479.232-42.496c32.256-3.072 58.368-27.136 64-58.88l44.544-249.856c3.584-20.48-2.048-41.984-15.872-58.368z" fill="#231815" /><path d="M414.72 886.784m-40.96 0a40.96 40.96 0 1 0 81.92 0 40.96 40.96 0 1 0-81.92 0Z" fill="#231815" /><path d="M695.296 886.784m-40.96 0a40.96 40.96 0 1 0 81.92 0 40.96 40.96 0 1 0-81.92 0Z" fill="#231815" /></svg>