<?xml version="1.0" standalone="no"?><!DOCTYPE svg PUBLIC "-//W3C//DTD SVG 1.1//EN" "http://www.w3.org/Graphics/SVG/1.1/DTD/svg11.dtd"><svg class="icon" width="200px" height="200.00px" viewBox="0 0 1024 1024" version="1.1" xmlns="http://www.w3.org/2000/svg"><path d="M945.664 437.76l-385.024-312.832c-27.136-25.088-69.632-25.088-96.768 0l-384 311.808-1.024 1.024c-12.288 11.776-16.384 29.184-10.24 45.056s20.992 26.112 37.888 26.112H189.44v368.128c0 28.16 23.552 51.2 53.248 51.2h538.624c29.184 0 53.248-23.04 53.248-51.2v-45.568c0-11.264-9.216-20.48-20.48-20.48s-20.48 9.216-20.48 20.48v45.568c0 5.632-5.632 10.24-12.288 10.24H242.688c-6.656 0-12.288-4.608-12.288-10.24V467.968H107.008l382.976-311.296 1.024-1.024c11.776-11.264 30.208-11.264 41.984 0l384 312.32H793.6v224.768c0 11.264 9.216 20.48 20.48 20.48s20.48-9.216 20.48-20.48v-184.32h82.944c16.896 0 31.744-10.24 37.888-26.112s2.56-33.28-9.728-44.544z" fill="#231815" /><path d="M628.736 524.288v213.504c0 11.264 9.216 20.48 20.48 20.48s20.48-9.216 20.48-20.48v-213.504c0-11.264-9.216-20.48-20.48-20.48s-20.48 9.216-20.48 20.48z" fill="#38CEB1" /><path d="M814.08 761.856m-20.48 0a20.48 20.48 0 1 0 40.96 0 20.48 20.48 0 1 0-40.96 0Z" fill="#231815" /></svg>