<?xml version="1.0" standalone="no"?><!DOCTYPE svg PUBLIC "-//W3C//DTD SVG 1.1//EN" "http://www.w3.org/Graphics/SVG/1.1/DTD/svg11.dtd"><svg class="icon" width="200px" height="200.00px" viewBox="0 0 1024 1024" version="1.1" xmlns="http://www.w3.org/2000/svg"><path d="M711.68 907.776m-20.48 0a20.48 20.48 0 1 0 40.96 0 20.48 20.48 0 1 0-40.96 0Z" fill="#231815" /><path d="M512 564.224c122.368 0 221.696-104.96 221.696-234.496S634.368 95.232 512 95.232 289.792 200.192 289.792 329.728s99.84 234.496 222.208 234.496z m0-428.032c99.84 0 180.736 87.04 180.736 193.536s-81.408 193.536-180.736 193.536-180.736-87.04-180.736-193.536S412.16 136.192 512 136.192z" fill="#38CEB1" /><path d="M934.912 841.728l-15.872-74.24c-15.36-71.168-73.728-125.952-145.92-136.192l-35.84-5.12c-149.504-20.992-300.544-20.992-450.048 0l-35.84 5.12c-72.192 10.24-131.072 65.024-145.92 136.192l-15.872 74.24c-4.608 21.504 0.512 43.008 14.336 59.904s33.792 26.624 55.808 26.624H634.88c11.264 0 20.48-9.216 20.48-20.48s-9.216-20.48-20.48-20.48H159.232c-9.216 0-17.92-4.096-24.064-11.264-5.632-7.168-8.192-16.384-6.144-25.6l15.872-74.24c11.776-54.784 56.32-96.256 111.616-103.936l35.84-5.12c145.408-20.48 292.864-20.48 438.784 0l35.84 5.12c55.296 7.68 100.352 49.664 111.616 103.936l15.872 74.24c2.048 9.216-0.512 18.432-6.144 25.6s-14.336 11.264-24.064 11.264h-78.336c-11.264 0-20.48 9.216-20.48 20.48s9.216 20.48 20.48 20.48h78.336c21.504 0 41.984-9.728 55.808-26.624 13.824-16.896 18.944-38.912 14.848-59.904z" fill="#231815" /></svg>